<svg xmlns="http://www.w3.org/2000/svg" width="1146.667" height="1146.667" preserveAspectRatio="xMidYMid meet" version="1.0" viewBox="0 0 860 860"><metadata>Created by potrace 1.11, written by Peter Selinger 2001-2013</metadata><g fill="#000" stroke="none"><path d="M4075 7464 c-945 -75 -1786 -534 -2345 -1279 -119 -159 -201 -293 -300 -490 -160 -319 -254 -630 -307 -1005 -24 -176 -24 -614 0 -790 100 -718 402 -1333 902 -1835 506 -508 1134 -817 1875 -921 177 -25 633 -25 810 0 741 104 1369 413 1875 921 500 502 802 1117 902 1835 13 94 17 193 17 395 0 289 -10 402 -60 643 -71 346 -225 729 -414 1030 -510 812 -1346 1345 -2315 1477 -115 16 -527 28 -640 19z m1004 -1356 c-193 -644 -1118 -3680 -1121 -3684 -3 -2 -106 -3 -230 -2 l-226 3 562 1855 c309 1020 565 1863 569 1873 6 15 27 17 236 17 l229 0 -19 -62z m-2019 -934 l149 -146 -372 -369 -372 -368 368 -363 369 -363 -151 -150 -151 -150 -515 515 -514 514 517 513 c284 281 519 512 521 512 2 1 70 -65 151 -145z m3164 -369 l516 -510 -515 -515 -515 -515 -151 150 -150 150 368 362 368 362 -371 371 -372 371 147 144 c80 80 149 143 152 142 3 -1 239 -231 523 -512z" transform="translate(0.000000,860.000000) scale(0.100000,-0.100000)"/></g></svg>